# xmcd CD database file
#
# Track frame offsets:
#	150
#	22118
#	40293
#	64151
#	77127
#	96105
#	116803
#	138450
#	155355
#	174785
#	193264
#	213226
#	231141
#
# Disc length: 3320 seconds
#
# Revision: 2
# Processed by: cddbd v1.5.2PL0 Copyright (c) Steve Scherf et al.
# Submitted via: CDex 1.51
#
DISCID=b10cf60d
DTITLE=Aldo Romano - Chante
DYEAR=2005
DGENRE=Jazz
TTITLE0=Les Enfants S'ennuient Le Dimanche
TTITLE1=A St Germain Des Pres
TTITLE2=Io Qui Tu Li
TTITLE3=Avec Les Anges
TTITLE4=The End of a Love Affair
TTITLE5=Sans Un Mot
TTITLE6=La Valse Des Lilas
TTITLE7=Les Papillons De Nuit
TTITLE8=Estate
TTITLE9=Rue De Douai
TTITLE10=L'etang
TTITLE11=So in Love
TTITLE12=Les Clowns
EXTD=YEAR: 2005
EXTT0=
EXTT1=
EXTT2=
EXTT3=
EXTT4=
EXTT5=
EXTT6=
EXTT7=
EXTT8=
EXTT9=
EXTT10=
EXTT11=
EXTT12=
PLAYORDER=
